<svg width="26" height="18" viewBox="0 0 26 18" fill="none" xmlns="http://www.w3.org/2000/svg">
<path d="M12.8333 0C7 0 2.01833 3.62833 0 8.75C2.01833 13.8717 7 17.5 12.8333 17.5C18.6667 17.5 23.6483 13.8717 25.6667 8.75C23.6483 3.62833 18.6667 0 12.8333 0ZM12.8333 14.5833C9.61333 14.5833 7 11.97 7 8.75C7 5.53 9.61333 2.91667 12.8333 2.91667C16.0533 2.91667 18.6667 5.53 18.6667 8.75C18.6667 11.97 16.0533 14.5833 12.8333 14.5833ZM12.8333 5.25C10.8967 5.25 9.33333 6.81333 9.33333 8.75C9.33333 10.6867 10.8967 12.25 12.8333 12.25C14.77 12.25 16.3333 10.6867 16.3333 8.75C16.3333 6.81333 14.77 5.25 12.8333 5.25Z" fill="#AAAAAA"/>
</svg>
